<svg width="23" height="26" viewBox="0 0 23 26" fill="none" xmlns="http://www.w3.org/2000/svg">
<path d="M6.375 22.1127C6.125 21.8627 6 21.5667 6 21.2247C6 20.8834 6.125 20.5877 6.375 20.3377L13.7 13.0127L6.35 5.6627C6.11667 5.42936 6 5.1377 6 4.7877C6 4.4377 6.125 4.1377 6.375 3.8877C6.625 3.6377 6.921 3.5127 7.263 3.5127C7.60433 3.5127 7.9 3.6377 8.15 3.8877L16.55 12.3127C16.65 12.4127 16.721 12.521 16.763 12.6377C16.8043 12.7544 16.825 12.8794 16.825 13.0127C16.825 13.146 16.8043 13.271 16.763 13.3877C16.721 13.5044 16.65 13.6127 16.55 13.7127L8.125 22.1377C7.89167 22.371 7.60433 22.4877 7.263 22.4877C6.921 22.4877 6.625 22.3627 6.375 22.1127Z" fill="#121213"/>
</svg>
