<svg width="26" height="26" viewBox="0 0 26 26" fill="none" xmlns="http://www.w3.org/2000/svg">
<path d="M17.0625 5.68756C17.0625 5.47207 17.1481 5.26541 17.3005 5.11303C17.4528 4.96066 17.6595 4.87506 17.875 4.87506H19.5V3.25006C19.5 3.03457 19.5856 2.82791 19.738 2.67553C19.8903 2.52316 20.097 2.43756 20.3125 2.43756C20.528 2.43756 20.7347 2.52316 20.887 2.67553C21.0394 2.82791 21.125 3.03457 21.125 3.25006V4.87506H22.75C22.9655 4.87506 23.1722 4.96066 23.3245 5.11303C23.4769 5.26541 23.5625 5.47207 23.5625 5.68756C23.5625 5.90305 23.4769 6.10971 23.3245 6.26208C23.1722 6.41446 22.9655 6.50006 22.75 6.50006H21.125V8.12506C21.125 8.34055 21.0394 8.54721 20.887 8.69958C20.7347 8.85196 20.528 8.93756 20.3125 8.93756C20.097 8.93756 19.8903 8.85196 19.738 8.69958C19.5856 8.54721 19.5 8.34055 19.5 8.12506V6.50006H17.875C17.6595 6.50006 17.4528 6.41446 17.3005 6.26208C17.1481 6.10971 17.0625 5.90305 17.0625 5.68756ZM23.4305 11.3344C23.5202 11.8851 23.5644 12.4422 23.5625 13.0001C23.5639 14.4659 23.2593 15.9159 22.6682 17.2573C22.0771 18.5986 21.2125 19.8018 20.1297 20.7899L19.9977 20.9118C18.0667 22.6196 15.5778 23.5623 13 23.5623C10.4222 23.5623 7.93331 22.6196 6.00234 20.9118L5.87031 20.7899C4.30068 19.3525 3.20187 17.4745 2.71789 15.402C2.23391 13.3294 2.38733 11.159 3.15804 9.17514C3.92875 7.19127 5.2808 5.4865 7.03702 4.28424C8.79323 3.08197 10.8717 2.4383 13 2.43756C13.5579 2.43566 14.115 2.47982 14.6656 2.56959C14.8749 2.60716 15.061 2.72522 15.1842 2.89846C15.3074 3.07171 15.3578 3.28632 15.3246 3.49628C15.2913 3.70624 15.1772 3.89482 15.0065 4.02157C14.8358 4.14832 14.6223 4.20314 14.4117 4.17428C13.9446 4.10138 13.4727 4.06403 13 4.06256C11.278 4.06312 9.59286 4.56113 8.14719 5.49668C6.70152 6.43223 5.55689 7.7655 4.85097 9.33613C4.14504 10.9068 3.90787 12.6479 4.16798 14.3501C4.4281 16.0523 5.17442 17.6432 6.31719 18.9313C7.22311 17.6175 8.49937 16.6029 9.98359 16.0165C9.18753 15.3895 8.60664 14.53 8.3217 13.5575C8.03676 12.5851 8.06193 11.548 8.39372 10.5905C8.72551 9.63306 9.34742 8.80277 10.173 8.21513C10.9985 7.6275 11.9867 7.31172 13 7.31172C14.0133 7.31172 15.0015 7.6275 15.827 8.21513C16.6526 8.80277 17.2745 9.63306 17.6063 10.5905C17.9381 11.548 17.9632 12.5851 17.6783 13.5575C17.3934 14.53 16.8125 15.3895 16.0164 16.0165C17.5006 16.6029 18.7769 17.6175 19.6828 18.9313C21.1378 17.2985 21.9405 15.1871 21.9375 13.0001C21.936 12.5273 21.8987 12.0554 21.8258 11.5883C21.7969 11.3777 21.8517 11.1642 21.9785 10.9936C22.1052 10.8229 22.2938 10.7087 22.5038 10.6755C22.7137 10.6423 22.9284 10.6927 23.1016 10.8159C23.2748 10.939 23.3929 11.1252 23.4305 11.3344ZM13 15.4376C13.6428 15.4376 14.2711 15.2469 14.8056 14.8898C15.3401 14.5327 15.7566 14.0251 16.0026 13.4313C16.2486 12.8374 16.313 12.184 16.1876 11.5535C16.0622 10.9231 15.7526 10.344 15.2981 9.88946C14.8436 9.43494 14.2645 9.12541 13.634 9.00001C13.0036 8.8746 12.3501 8.93896 11.7563 9.18495C11.1624 9.43093 10.6548 9.8475 10.2977 10.382C9.94061 10.9164 9.75 11.5448 9.75 12.1876C9.75268 13.0487 10.0959 13.8738 10.7049 14.4827C11.3138 15.0916 12.1389 15.4349 13 15.4376ZM13 21.9376C14.9834 21.9404 16.9106 21.279 18.4742 20.0587C17.8863 19.1403 17.0767 18.3846 16.1201 17.8611C15.1634 17.3377 14.0905 17.0634 13 17.0634C11.9095 17.0634 10.8366 17.3377 9.87995 17.8611C8.92332 18.3846 8.11375 19.1403 7.52578 20.0587C9.08936 21.279 11.0166 21.9404 13 21.9376Z" fill="#12396F"/>
</svg>
