<svg width="26" height="26" viewBox="0 0 26 26" fill="none" xmlns="http://www.w3.org/2000/svg">
<path d="M13 2.16663C11.5773 2.16663 10.1686 2.44684 8.85424 2.99126C7.53988 3.53569 6.34562 4.33367 5.33965 5.33964C3.30801 7.37128 2.16664 10.1268 2.16664 13C2.15717 15.5015 3.02334 17.9275 4.61498 19.8575L2.44831 22.0241C2.29799 22.1765 2.19616 22.3699 2.15567 22.5801C2.11518 22.7902 2.13785 23.0077 2.22081 23.205C2.31079 23.3999 2.45666 23.5637 2.63989 23.6755C2.82313 23.7874 3.03548 23.8423 3.24998 23.8333H13C15.8732 23.8333 18.6287 22.6919 20.6603 20.6603C22.6919 18.6286 23.8333 15.8731 23.8333 13C23.8333 10.1268 22.6919 7.37128 20.6603 5.33964C18.6287 3.30799 15.8732 2.16663 13 2.16663ZM13 21.6666H5.86081L6.86831 20.6591C7.07008 20.4562 7.18334 20.1816 7.18334 19.8954C7.18334 19.6092 7.07008 19.3346 6.86831 19.1316C5.44978 17.7147 4.56642 15.8497 4.36873 13.8545C4.17104 11.8593 4.67125 9.85722 5.78414 8.18944C6.89703 6.52167 8.55375 5.29135 10.472 4.7081C12.3903 4.12485 14.4515 4.22475 16.3044 4.99078C18.1573 5.75682 19.6872 7.14159 20.6336 8.90917C21.58 10.6768 21.8843 12.7178 21.4945 14.6846C21.1048 16.6513 20.0452 18.4221 18.4963 19.6952C16.9474 20.9683 15.005 21.6651 13 21.6666ZM15.1666 11.9166H14.0833V10.8333C14.0833 10.546 13.9692 10.2704 13.766 10.0673C13.5628 9.8641 13.2873 9.74996 13 9.74996C12.7127 9.74996 12.4371 9.8641 12.2339 10.0673C12.0308 10.2704 11.9166 10.546 11.9166 10.8333V11.9166H10.8333C10.546 11.9166 10.2704 12.0308 10.0673 12.2339C9.86411 12.4371 9.74998 12.7126 9.74998 13C9.74998 13.2873 9.86411 13.5628 10.0673 13.766C10.2704 13.9692 10.546 14.0833 10.8333 14.0833H11.9166V15.1666C11.9166 15.4539 12.0308 15.7295 12.2339 15.9327C12.4371 16.1358 12.7127 16.25 13 16.25C13.2873 16.25 13.5628 16.1358 13.766 15.9327C13.9692 15.7295 14.0833 15.4539 14.0833 15.1666V14.0833H15.1666C15.454 14.0833 15.7295 13.9692 15.9327 13.766C16.1358 13.5628 16.25 13.2873 16.25 13C16.25 12.7126 16.1358 12.4371 15.9327 12.2339C15.7295 12.0308 15.454 11.9166 15.1666 11.9166Z" fill="#12396F"/>
</svg>
