<svg width="14" height="10" viewBox="0 0 14 10" fill="none" xmlns="http://www.w3.org/2000/svg">
<path d="M5.125 6.75L11.25 0.625C11.4792 0.395833 11.7708 0.28125 12.125 0.28125C12.4792 0.28125 12.7708 0.395833 13 0.625C13.2292 0.854166 13.3438 1.14583 13.3438 1.5C13.3438 1.85417 13.2292 2.14583 13 2.375L6 9.375C5.75 9.625 5.45833 9.75 5.125 9.75C4.79167 9.75 4.5 9.625 4.25 9.375L1 6.125C0.770833 5.89583 0.65625 5.60417 0.65625 5.25C0.65625 4.89583 0.770833 4.60417 1 4.375C1.22917 4.14583 1.52083 4.03125 1.875 4.03125C2.22917 4.03125 2.52083 4.14583 2.75 4.375L5.125 6.75Z" fill="#002C51"/>
</svg>
