<svg width="22" height="22" viewBox="0 0 22 22" fill="none" xmlns="http://www.w3.org/2000/svg">
<path d="M11 13.1666C10.7857 13.1666 10.5763 13.2302 10.3981 13.3492C10.22 13.4682 10.0811 13.6374 9.99911 13.8354C9.91711 14.0333 9.89566 14.2512 9.93746 14.4613C9.97926 14.6715 10.0824 14.8645 10.2339 15.016C10.3855 15.1675 10.5785 15.2707 10.7886 15.3125C10.9988 15.3543 11.2166 15.3328 11.4146 15.2508C11.6125 15.1688 11.7817 15.03 11.9007 14.8518C12.0198 14.6737 12.0833 14.4642 12.0833 14.25C12.0833 13.9626 11.9692 13.6871 11.766 13.4839C11.5628 13.2808 11.2873 13.1666 11 13.1666ZM11 0.166626C9.57732 0.166626 8.1686 0.446838 6.85424 0.991264C5.53988 1.53569 4.34562 2.33367 3.33965 3.33964C1.30801 5.37128 0.166644 8.12678 0.166644 11C0.157173 13.5015 1.02334 15.9275 2.61498 17.8575L0.44831 20.0241C0.29799 20.1765 0.19616 20.3699 0.155672 20.5801C0.115183 20.7902 0.137849 21.0077 0.22081 21.205C0.31079 21.3999 0.456656 21.5637 0.639894 21.6755C0.823132 21.7874 1.03548 21.8423 1.24998 21.8333H11C13.8732 21.8333 16.6287 20.6919 18.6603 18.6603C20.6919 16.6286 21.8333 13.8731 21.8333 11C21.8333 8.12678 20.6919 5.37128 18.6603 3.33964C16.6287 1.30799 13.8732 0.166626 11 0.166626ZM11 19.6666H3.86081L4.86831 18.6591C4.97067 18.5588 5.05211 18.4391 5.10789 18.3071C5.16368 18.1751 5.19272 18.0333 5.19331 17.89C5.18924 17.6042 5.07243 17.3316 4.86831 17.1316C3.44978 15.7147 2.56642 13.8497 2.36873 11.8545C2.17104 9.85926 2.67125 7.85722 3.78414 6.18944C4.89703 4.52167 6.55375 3.29135 8.47204 2.7081C10.3903 2.12485 12.4515 2.22475 14.3044 2.99078C16.1573 3.75682 17.6872 5.14159 18.6336 6.90918C19.58 8.67676 19.8843 10.7178 19.4945 12.6846C19.1048 14.6513 18.0452 16.4221 16.4963 17.6952C14.9474 18.9683 13.005 19.6651 11 19.6666ZM11 6.66663C10.7127 6.66663 10.4371 6.78076 10.2339 6.98393C10.0308 7.18709 9.91664 7.46264 9.91664 7.74996V11C9.91664 11.2873 10.0308 11.5628 10.2339 11.766C10.4371 11.9692 10.7127 12.0833 11 12.0833C11.2873 12.0833 11.5628 11.9692 11.766 11.766C11.9692 11.5628 12.0833 11.2873 12.0833 11V7.74996C12.0833 7.46264 11.9692 7.18709 11.766 6.98393C11.5628 6.78076 11.2873 6.66663 11 6.66663Z" fill="#911A33"/>
</svg>
